<svg xmlns="http://www.w3.org/2000/svg" viewBox="0 0 1280 640" role="img" aria-label="KELT">
  <title>KELT</title>
  <rect width="1280" height="640" fill="#0e2a2e"/>
  <g transform="translate(528,72) scale(3.5)" fill="none" stroke-linecap="round" stroke-linejoin="round">
    <path d="M16 58 Q32 63 48 58" stroke="#0f766e" stroke-width="3"/>
    <path d="M21 58 C15 50 27 43 21 35 C15 28 25 21 21 14" stroke="#2dd4bf" stroke-width="4"/>
    <path d="M32 58 C26 49 38 41 32 33 C26 25 38 17 32 8" stroke="#14b8a6" stroke-width="4"/>
    <path d="M43 58 C49 50 37 43 43 35 C49 28 39 22 43 16" stroke="#2dd4bf" stroke-width="4"/>
  </g>
  <g transform="translate(528,72) scale(3.5)" fill="#f59e0b">
    <circle cx="21" cy="14" r="2.6"/>
    <circle cx="32" cy="8" r="2.8"/>
    <circle cx="43" cy="16" r="2.6"/>
  </g>
  <text x="640" y="468" text-anchor="middle" font-family="'Space Grotesk','Segoe UI',system-ui,sans-serif" font-size="150" font-weight="800" letter-spacing="8" fill="#e6fffb">KELT</text>
  <text x="640" y="540" text-anchor="middle" font-family="'Segoe UI',system-ui,sans-serif" font-size="33" fill="#9fd8d0">lightweight cloud-native 5G core + edge testbed</text>
</svg>
