<svg xmlns="http://www.w3.org/2000/svg" viewBox="0 0 64 64" role="img" aria-label="KELT">
  <title>KELT</title>
  <!-- KELT kelp mark (placeholder): three kelp fronds rising from a holdfast,
       amber air-bladders. Three fronds nod to master/worker/edge; floating =
       lightweight. Swap this file with the polished version, keep the name. -->
  <g fill="none" stroke-linecap="round" stroke-linejoin="round">
    <path d="M16 58 Q32 63 48 58" stroke="#0f766e" stroke-width="3"/>
    <path d="M21 58 C15 50 27 43 21 35 C15 28 25 21 21 14" stroke="#14b8a6" stroke-width="4"/>
    <path d="M32 58 C26 49 38 41 32 33 C26 25 38 17 32 8" stroke="#0d9488" stroke-width="4"/>
    <path d="M43 58 C49 50 37 43 43 35 C49 28 39 22 43 16" stroke="#14b8a6" stroke-width="4"/>
  </g>
  <g fill="#f59e0b">
    <circle cx="21" cy="14" r="2.6"/>
    <circle cx="32" cy="8" r="2.8"/>
    <circle cx="43" cy="16" r="2.6"/>
    <circle cx="33.5" cy="33" r="2.2"/>
  </g>
</svg>
